Coordinates
version=1
nRows=14
nColumns=40
inDegrees=yes

Units are S.I. units (second, meters, Newtons, ...)
Angles are in degrees.

endheader
time	pelvis_tilt	pelvis_list	pelvis_rotation	pelvis_tx	pelvis_ty	pelvis_tz	hip_flexion_r	hip_adduction_r	hip_rotation_r	knee_angle_r	knee_angle_r_beta	ankle_angle_r	subtalar_angle_r	mtp_angle_r	hip_flexion_l	hip_adduction_l	hip_rotation_l	knee_angle_l	knee_angle_l_beta	ankle_angle_l	subtalar_angle_l	mtp_angle_l	lumbar_extension	lumbar_bending	lumbar_rotation	arm_flex_r	arm_add_r	arm_rot_r	elbow_flex_r	pro_sup_r	wrist_flex_r	wrist_dev_r	arm_flex_l	arm_add_l	arm_rot_l	elbow_flex_l	pro_sup_l	wrist_flex_l	wrist_dev_l
     27.20250000	     -4.33056898	     -4.14985978	      6.30488311	      0.89536288	      0.91904505	      0.45698160	      0.94948312	      0.15746527	    -15.65457839	     24.28571086	     24.28571086	     17.56290025	     -5.81531119	     -4.77951335	     27.69714915	     -2.82117735	     -1.36190043	     23.51284217	     23.51284217	      3.20083227	    -14.55380708	      0.41284580	     -8.09991275	      3.87726206	      4.14696202	     34.35164771	    -14.33241237	      1.01381255	     90.34508561	     44.06350363	      0.00000000	      0.00000000	     -6.91105336	     -7.47968075	      1.38400979	     32.20320504	     44.79394384	      0.00000000	      0.00000000
     27.21600000	     -4.39618268	     -4.06015648	      5.99104678	      0.89621768	      0.91980824	      0.45471160	      2.20697870	     -0.52102727	    -15.21956387	     27.39677084	     27.39677084	     16.64098315	     -7.21491746	     -5.66511882	     27.27886989	     -2.78067818	     -1.72131559	     23.77278201	     23.77278201	      4.04129584	    -14.30718396	      0.33038756	     -8.01521623	      3.62843588	      4.12823719	     33.05974085	    -14.34795671	      1.38422100	     89.39429566	     44.09027689	      0.00000000	      0.00000000	     -5.89458635	     -7.61409589	      1.15678211	     32.55771038	     44.85022557	      0.00000000	      0.00000000
     27.22950000	     -4.43604508	     -3.96019888	      5.65913772	      0.89700146	      0.92053421	      0.45256464	      3.62109033	     -1.21516232	    -14.76620052	     30.76707801	     30.76707801	     15.46588789	     -8.79101311	     -6.62021339	     26.80222918	     -2.76941982	     -2.22187357	     23.97726891	     23.97726891	      4.86938035	    -13.90103967	      0.17088544	     -7.97976086	      3.37498755	      4.06449164	     31.68757168	    -14.31687981	      1.79360464	     88.41003303	     44.11716826	      0.00000000	      0.00000000	     -4.88499338	     -7.78143402	      0.88887749	     32.94437688	     44.91172370	      0.00000000	      0.00000000
     27.24300000	     -4.44078475	     -3.90521704	      5.33137158	      0.89769864	      0.92121530	      0.45058449	      5.03015360	     -1.77986557	    -14.24492658	     33.94007073	     33.94007073	     12.76855215	    -11.51559980	    -10.89982252	     26.37481733	     -2.89511112	     -2.97816322	     24.36563678	     24.36563678	      6.21220767	    -12.81395744	      0.83324274	     -7.95608297	      3.15394465	      3.63270574	     30.55844528	    -14.05969166	      2.69884772	     86.77558376	     44.25130129	      0.00000000	      0.00000000	     -4.03391752	     -7.77324163	     -0.85036441	     33.43354873	     45.23181477	      0.00000000	      0.00000000
     27.25650000	     -4.41936559	     -3.69816055	      4.99301511	      0.89826475	      0.92184717	      0.44855746	      6.72801334	     -2.67356754	    -13.98709763	     37.82683585	     37.82683585	     11.57922399	    -12.84058067	    -11.00581473	     25.72103307	     -2.79732039	     -3.63000321	     24.35551427	     24.35551427	      6.80542648	    -12.36517079	      0.39177257	     -8.01935292	      2.77532787	      3.46891102	     28.96074669	    -13.95709906	      3.05919837	     86.01110218	     44.26717674	      0.00000000	      0.00000000	     -2.99766062	     -8.07087640	     -1.02043980	     33.87276984	     45.27447607	      0.00000000	      0.00000000
     27.27000000	     -4.47350990	     -3.58469889	      4.67679711	      0.89864944	      0.92228628	      0.44673810	      8.63595757	     -3.38625487	    -13.61476362	     41.75193591	     41.75193591	     10.29969955	    -14.48483690	    -10.59196785	     25.19825113	     -2.84394542	     -4.41142826	     24.38743256	     24.38743256	      7.41378171	    -11.50069994	     -0.23933574	     -7.95933728	      2.50799027	      3.37100415	     27.21201573	    -13.94991851	      3.44910152	     84.98447124	     44.29601160	      0.00000000	      0.00000000	     -1.92082944	     -8.34366647	     -1.28573536	     34.40761859	     45.33293003	      0.00000000	      0.00000000
     27.28350000	     -4.40629234	     -3.35501924	      4.35743395	      0.89897484	      0.92284553	      0.44493652	     10.45001500	     -4.26171827	    -13.35470456	     45.62553555	     45.62553555	      9.10267940	    -15.77377901	    -10.08549348	     24.49261294	     -2.75133106	     -5.17204933	     24.33973323	     24.33973323	      7.98870072	    -10.83357145	     -0.72478067	     -8.07238472	      2.12716525	      3.09656545	     25.48092874	    -13.79118241	      3.84823942	     84.10431976	     44.31336235	      0.00000000	      0.00000000	     -0.87012101	     -8.73205667	     -1.49250368	     34.85471252	     45.37958258	      0.00000000	      0.00000000
     27.29700000	     -4.40595896	     -3.13319213	      4.04607883	      0.89913980	      0.92326435	      0.44330344	     12.40071387	     -5.10494500	    -13.09335155	     49.41699542	     49.41699542	      8.13125389	    -16.93760004	     -9.06461651	     23.85044680	     -2.68166275	     -6.01536599	     24.23808912	     24.23808912	      8.54859865	     -9.99221100	     -1.25120439	     -8.06907789	      1.76365227	      2.88503416	     23.61422338	    -13.73145501	      4.24222463	     83.02047980	     44.33763265	      0.00000000	      0.00000000	      0.21635987	     -9.12289054	     -1.73111764	     35.32762142	     45.43083221	      0.00000000	      0.00000000
     27.31050000	     -4.26046755	     -3.16918127	      3.76190877	      0.89928623	      0.92400340	      0.44199711	     14.27894465	     -5.49307443	    -12.71532218	     53.14503384	     53.14503384	      8.63500724	    -17.39731425	     -3.57988491	     23.17880256	     -3.04363626	     -7.21771377	     24.35622547	     24.35622547	      9.16223223	     -8.29816883	     -2.20374119	     -8.21856415	      1.68170383	      2.77444582	     21.80904332	    -13.70921896	      4.54349599	     81.07864859	     44.42194494	      0.00000000	      0.00000000	      1.45592672	     -9.40266418	     -2.35862471	     35.74183463	     45.54652370	      0.00000000	      0.00000000
     27.32400000	     -4.24317670	     -2.87049681	      3.49173191	      0.89927436	      0.92459645	      0.44041054	     16.13443368	     -6.46294814	    -12.61319188	     56.37258727	     56.37258727	      8.03615480	    -17.88669438	     -2.83060794	     22.40083692	     -2.75196826	     -7.71149323	     23.99940453	     23.99940453	      9.60580059	     -7.97735539	     -2.36300628	     -8.29423173	      1.27617529	      2.28051757	     19.87808815	    -13.49184630	      4.94473001	     80.20295989	     44.43678052	      0.00000000	      0.00000000	      2.46194563	     -9.89263381	     -2.54874889	     36.05461292	     45.58839308	      0.00000000	      0.00000000
     27.33750000	     -4.15387165	     -2.80293662	      3.25039005	      0.89918294	      0.92544622	      0.43920584	     18.05716179	     -6.91919048	    -12.23671314	     59.57127529	     59.57127529	      9.50809185	    -17.76195135	      4.12899716	     21.61285752	     -2.79085124	     -8.34579695	     23.72324846	     23.72324846	     10.04788605	     -7.19051261	     -2.76597446	     -8.37572908	      1.10281682	      1.99350215	     18.09063486	    -13.29544098	      5.09888232	     78.07478036	     44.55709731	      0.00000000	      0.00000000	      3.84055771	    -10.18521118	     -3.25276568	     35.85660019	     45.72237975	      0.00000000	      0.00000000
     27.35100000	     -4.07887295	     -2.66851224	      3.00961846	      0.89907052	      0.92633828	      0.43796648	     19.68032535	     -7.52914511	    -12.05039966	     61.87685291	     61.87685291	      9.02852434	    -18.18650209	      4.35604986	     20.77230209	     -2.66676509	     -8.77016377	     23.30585889	     23.30585889	     10.42735151	     -6.80662929	     -2.92660498	     -8.48462315	      0.88372081	      1.75240745	     15.97493934	    -13.36783106	      5.42885192	     76.79367821	     44.58617773	      0.00000000	      0.00000000	      4.96509541	    -10.62428922	     -3.40222908	     36.25362414	     45.76052533	      0.00000000	      0.00000000
     27.36450000	     -3.93914823	     -2.65583138	      2.81923034	      0.89892811	      0.92744185	      0.43689564	     21.10143974	     -7.94224721	    -11.91997662	     63.66004753	     63.66004753	      8.71417857	    -18.45346277	      4.64453489	     19.89137768	     -2.65923799	     -9.07447488	     22.90903904	     22.90903904	     10.76303721	     -6.46638732	     -3.06940715	     -8.67997711	      0.79483728	      1.41219492	     13.83641048	    -13.35698994	      5.71147279	     75.38042421	     44.61937773	      0.00000000	      0.00000000	      6.11863940	    -11.12950752	     -3.52781059	     36.59010567	     45.79416084	      0.00000000	      0.00000000
     27.37800000	     -3.83529348	     -2.65628788	      2.54607105	      0.89873397	      0.92860499	      0.43607625	     22.53777762	     -8.19391105	    -11.58858670	     65.04713483	     65.04713483	      8.80282916	    -18.50070885	      5.75195264	     18.93040576	     -2.67369470	     -9.47730435	     22.28796786	     22.28796786	     11.04517288	     -6.01315373	     -3.38731576	     -8.78983329	      0.74535669	      1.62543935	     11.96648934	    -13.51062435	      5.58821362	     72.46663576	     44.72548661	      0.00000000	      0.00000000	      7.62570723	    -11.37160981	     -3.58049563	     36.55496341	     45.82722952	      0.00000000	      0.00000000
